<svg xmlns="http://www.w3.org/2000/svg" viewBox="0 0 32 32">
  <rect width="32" height="32" fill="#1A1F2E" rx="4"/>
  <polygon points="25.45 13.62 25.45 18.15 23.61 18.15 23.61 14.48 19.31 10.92 17.47 9.38 15.91 8.08 14.48 9.27 12.63 10.81 8.39 14.33 8.39 21.04 12.63 21.04 12.63 14.2 19.31 14.2 19.31 21.04 25.45 21.04 25.45 26.32 6.55 26.32 6.55 24.47 23.61 24.47 23.61 22.89 17.47 22.89 17.47 16.04 14.48 16.04 14.48 22.89 6.55 22.89 6.55 13.46 8.39 11.93 12.63 8.4 14.46 6.88 14.48 6.9 14.48 6.87 15.91 5.68 17.35 6.88 17.47 6.98 19.31 8.51 23.61 12.08 25.45 13.62" fill="#C6A46A"/>
</svg>